<svg width="60" height="60" viewBox="0 0 60 60" fill="none" xmlns="http://www.w3.org/2000/svg">
<path opacity="0.1" d="M36 21.9999L35.3942 21.6537C34.1045 20.9168 32.5 21.848 32.5 23.3332V36.6667C32.5 38.1519 34.1045 39.0829 35.3942 38.3462L36 37.9999L46.5 31.9999C48.0475 31.1157 48.0475 28.8842 46.5 27.9999L36 21.9999Z" fill="white"/>
<path opacity="0.1" d="M16.5 19.9999L16.0333 19.7082C14.4952 18.7469 12.5 19.8527 12.5 21.6666V38.3332C12.5 40.1472 14.4952 41.2529 16.0333 40.2917L16.5 39.9999L28.5 32.4999C30.3475 31.3452 30.3475 28.6547 28.5 27.4999L16.5 19.9999Z" fill="white"/>
<path d="M36 21.9999L35.3942 21.6537C34.1045 20.9168 32.5 21.848 32.5 23.3332V36.6667C32.5 38.1519 34.1045 39.0829 35.3942 38.3462L36 37.9999L46.5 31.9999C48.0475 31.1157 48.0475 28.8842 46.5 27.9999L36 21.9999Z" stroke="white" stroke-width="5" stroke-linecap="round" stroke-linejoin="round"/>
<path d="M16.5 19.9999L16.0333 19.7082C14.4952 18.7469 12.5 19.8527 12.5 21.6666V38.3332C12.5 40.1472 14.4952 41.2529 16.0333 40.2917L16.5 39.9999L28.5 32.4999C30.3475 31.3452 30.3475 28.6547 28.5 27.4999L16.5 19.9999Z" stroke="white" stroke-width="5" stroke-linecap="round" stroke-linejoin="round"/>
</svg>
