<svg width="50" height="50" viewBox="0 0 50 50" fill="none" xmlns="http://www.w3.org/2000/svg">
<path fill-rule="evenodd" clip-rule="evenodd" d="M25 0C23.4056 0 22.1444 0.261892 21.1598 0.748363C20.801 0.925604 20.4597 1.13474 20.1846 1.3066L19.9799 1.43502C19.7738 1.56459 19.6004 1.67361 19.4184 1.77885C18.9472 2.05122 18.7686 2.08019 18.7511 2.08304C18.7496 2.08328 18.7504 2.08304 18.7511 2.08304C16.4499 2.08304 14.5833 3.94881 14.5833 6.25H12.5C9.04823 6.25 6.25 9.04823 6.25 12.5V41.6667C6.25 45.1185 9.04823 47.9167 12.5 47.9167H37.5C40.9519 47.9167 43.75 45.1185 43.75 41.6667V12.5C43.75 9.04823 40.9519 6.25 37.5 6.25H35.4167C35.4167 3.94881 33.5512 2.08333 31.25 2.08333C31.2506 2.08333 31.2515 2.08356 31.25 2.08333C31.2325 2.08049 31.0529 2.05122 30.5817 1.77885C30.3996 1.6736 30.2262 1.56459 30.02 1.43501L29.8154 1.3066C29.5402 1.13474 29.199 0.925604 28.8402 0.748363C27.8556 0.261892 26.5944 0 25 0ZM34.8592 10.4167C34.1388 11.6621 32.7923 12.5 31.25 12.5H18.75C17.2077 12.5 15.8612 11.6621 15.1407 10.4167H12.5C11.3494 10.4167 10.4167 11.3494 10.4167 12.5V41.6667C10.4167 42.8173 11.3494 43.75 12.5 43.75H37.5C38.6506 43.75 39.5833 42.8173 39.5833 41.6667V12.5C39.5833 11.3494 38.6506 10.4167 37.5 10.4167H34.8592ZM23.0054 4.48394C23.2554 4.36044 23.8385 4.16667 25 4.16667C26.1615 4.16667 26.7446 4.36044 26.9946 4.48394C27.1517 4.56152 27.3408 4.67362 27.6075 4.84027L27.7627 4.93767C27.9792 5.07379 28.2402 5.23808 28.4965 5.38623C29.1067 5.73894 30.0902 6.25 31.25 6.25V8.33333H18.75V6.25C19.9097 6.25 20.8933 5.73894 21.5035 5.38623C21.7598 5.23808 22.0208 5.07381 22.2373 4.93767L22.3925 4.84027C22.6592 4.67362 22.8483 4.56152 23.0054 4.48394Z" fill="white"/>
</svg>
