<svg width="50" height="50" viewBox="0 0 50 50" fill="none" xmlns="http://www.w3.org/2000/svg">
<g clip-path="url(#clip0_119_94)">
<path d="M14.5661 30.2126C14.2925 30.2125 14.0215 30.2664 13.7688 30.371C13.516 30.4757 13.2863 30.6292 13.0928 30.8226C12.8993 31.0161 12.7459 31.2458 12.6412 31.4986C12.5365 31.7514 12.4827 32.0223 12.4828 32.2959V36.009C9.79744 32.9722 8.31547 29.0581 8.31609 25.0043C8.31571 24.3916 8.35239 23.7794 8.42595 23.1712C8.45967 22.8992 8.4394 22.6232 8.36627 22.359C8.29315 22.0949 8.16862 21.8478 7.99981 21.6318C7.83101 21.4159 7.62125 21.2354 7.38257 21.1007C7.14388 20.966 6.88095 20.8797 6.60885 20.8467C6.33676 20.8138 6.06083 20.8349 5.7969 20.9088C5.53297 20.9827 5.28622 21.108 5.07078 21.2774C4.85535 21.4469 4.67547 21.6572 4.54145 21.8962C4.40744 22.1353 4.32192 22.3985 4.2898 22.6707C4.19543 23.445 4.14855 24.2243 4.14943 25.0043C4.15226 29.9754 5.93892 34.7805 9.18457 38.5459H6.23276C5.68022 38.5459 5.15032 38.7654 4.75962 39.1561C4.36892 39.5468 4.14943 40.0767 4.14943 40.6293C4.14943 41.1818 4.36892 41.7117 4.75962 42.1024C5.15032 42.4931 5.68022 42.7126 6.23276 42.7126H14.5661C14.8919 42.7085 15.2121 42.6266 15.4998 42.4738C15.7876 42.3209 16.0347 42.1015 16.2205 41.8338C16.2448 41.8018 16.2758 41.778 16.2985 41.7442C16.3123 41.7235 16.3127 41.699 16.3257 41.6779C16.425 41.5101 16.4994 41.3289 16.5465 41.1397C16.5774 41.0335 16.5993 40.9249 16.612 40.815C16.618 40.7506 16.6495 40.6952 16.6495 40.6293V32.296C16.6496 32.0224 16.5957 31.7514 16.4911 31.4986C16.3864 31.2458 16.2329 31.0161 16.0395 30.8226C15.846 30.6291 15.6163 30.4757 15.3635 30.371C15.1107 30.2663 14.8397 30.2125 14.5661 30.2126ZM17.6911 12.5043H13.9776C17.0147 9.81907 20.9289 8.33712 24.9828 8.33759C25.5951 8.33612 26.207 8.37282 26.8148 8.44747C27.0865 8.48046 27.3621 8.45962 27.6258 8.38612C27.8894 8.31262 28.136 8.18791 28.3515 8.01911C28.5669 7.85031 28.7471 7.64072 28.8815 7.40231C29.016 7.16391 29.1022 6.90135 29.1352 6.62963C29.1682 6.35792 29.1473 6.08236 29.0738 5.8187C29.0003 5.55504 28.8756 5.30844 28.7068 5.09297C28.538 4.87751 28.3284 4.6974 28.09 4.56293C27.8516 4.42847 27.5891 4.34228 27.3173 4.30928C26.5427 4.21582 25.763 4.16962 24.9828 4.17093C20.0116 4.17363 15.2065 5.96016 11.4411 9.2057V6.25426C11.4411 5.70172 11.2216 5.17182 10.8309 4.78112C10.4402 4.39042 9.91029 4.17093 9.35776 4.17093C8.80523 4.17093 8.27532 4.39042 7.88462 4.78112C7.49392 5.17182 7.27443 5.70172 7.27443 6.25426V14.5876C7.28753 14.7253 7.31498 14.8612 7.35632 14.9932L7.35682 14.9958C7.40741 15.2521 7.50729 15.4962 7.65093 15.7145L7.67472 15.7497C7.81238 15.95 7.98491 16.1238 8.18409 16.2629C8.20686 16.2796 8.21818 16.3052 8.24182 16.3211C8.27159 16.3408 8.30528 16.347 8.33568 16.365C8.45383 16.4361 8.57902 16.4948 8.70926 16.54C8.88527 16.6013 9.06878 16.6383 9.25476 16.6502C9.29086 16.6521 9.32126 16.671 9.35776 16.671H17.6911C18.2436 16.671 18.7735 16.4515 19.1642 16.0608C19.5549 15.6701 19.7744 15.1402 19.7744 14.5877C19.7744 14.0351 19.5549 13.5052 19.1642 13.1145C18.7735 12.7238 18.2436 12.5043 17.6911 12.5043ZM42.6087 35.0128C42.5582 34.7563 42.4582 34.5121 42.3144 34.2938L42.2909 34.2589C42.1532 34.0585 41.9805 33.8846 41.7812 33.7454C41.7584 33.7289 41.7472 33.7032 41.7237 33.6874C41.7012 33.6725 41.6745 33.6721 41.6516 33.6581C41.3873 33.5111 41.0977 33.4154 40.798 33.3759C40.7321 33.3697 40.6753 33.3375 40.6078 33.3375H32.2744C31.7219 33.3375 31.192 33.557 30.8013 33.9477C30.4106 34.3384 30.1911 34.8683 30.1911 35.4208C30.1911 35.9734 30.4106 36.5033 30.8013 36.894C31.192 37.2847 31.7219 37.5042 32.2744 37.5042H35.9878C32.9508 40.1894 29.0366 41.6713 24.9828 41.6708C24.3703 41.6716 23.7585 41.6343 23.1507 41.5589C22.6019 41.4923 22.0492 41.6464 21.614 41.9873C21.1789 42.3282 20.897 42.828 20.8303 43.3768C20.7637 43.9255 20.9178 44.4783 21.2587 44.9134C21.5996 45.3486 22.0994 45.6305 22.6482 45.6971C23.4228 45.7905 24.2024 45.8374 24.9828 45.8375C29.9539 45.8348 34.759 44.0483 38.5244 40.8027V43.7543C38.5244 44.3068 38.7439 44.8367 39.1346 45.2274C39.5253 45.6181 40.0552 45.8376 40.6078 45.8376C41.1603 45.8376 41.6902 45.6181 42.0809 45.2274C42.4716 44.8367 42.6911 44.3068 42.6911 43.7543V35.4209C42.678 35.2832 42.6505 35.1473 42.6092 35.0153L42.6087 35.0128ZM43.7328 11.4626C44.2853 11.4626 44.8152 11.2431 45.2059 10.8524C45.5966 10.4617 45.8161 9.93179 45.8161 9.37926C45.8161 8.82672 45.5966 8.29682 45.2059 7.90612C44.8152 7.51542 44.2853 7.29593 43.7328 7.29593H35.3994C35.2638 7.309 35.1299 7.33602 34.9998 7.37655L34.9859 7.37934C34.7329 7.42996 34.4919 7.52864 34.2761 7.67003L34.2353 7.69761C34.036 7.83506 33.8629 8.00707 33.7243 8.20549C33.7079 8.22799 33.6826 8.23905 33.667 8.26232C33.6522 8.2847 33.6517 8.31115 33.6377 8.3339C33.489 8.59972 33.3926 8.89154 33.3536 9.19361C33.3476 9.25797 33.3161 9.3134 33.3161 9.37926V17.7126C33.3161 18.2651 33.5356 18.795 33.9263 19.1857C34.317 19.5764 34.8469 19.7959 35.3994 19.7959C35.952 19.7959 36.4819 19.5764 36.8726 19.1857C37.2633 18.795 37.4828 18.2651 37.4828 17.7126V13.9983C40.1679 17.0357 41.6498 20.95 41.6494 25.0042C41.6498 25.6168 41.6131 26.229 41.5396 26.8373C41.4735 27.3856 41.6277 27.9378 41.9684 28.3726C42.309 28.8074 42.8082 29.0894 43.3564 29.1566C43.4408 29.1664 43.5257 29.1711 43.6107 29.1708C44.1194 29.1702 44.6102 28.9834 44.9906 28.6457C45.3711 28.308 45.6147 27.8427 45.6757 27.3377C45.7701 26.5635 45.817 25.7842 45.8161 25.0043C45.8132 20.033 44.0265 15.2279 40.7807 11.4626H43.7328Z" fill="white"/>
</g>
<defs>
<clipPath id="clip0_119_94">
<rect width="50" height="50" fill="white"/>
</clipPath>
</defs>
</svg>
