<svg width="50" height="50" viewBox="0 0 50 50" fill="none" xmlns="http://www.w3.org/2000/svg">
<g clip-path="url(#clip0_124_384)">
<path d="M22.917 39.5834V33.3334C22.917 31.6758 22.2585 30.0861 21.0864 28.914C19.9143 27.7419 18.3246 27.0834 16.667 27.0834H10.417C8.75939 27.0834 7.16968 27.7419 5.99758 28.914C4.82547 30.0861 4.16699 31.6758 4.16699 33.3334V39.5834C4.16699 41.241 4.82547 42.8307 5.99758 44.0028C7.16968 45.1749 8.75939 45.8334 10.417 45.8334H16.667C18.3246 45.8334 19.9143 45.1749 21.0864 44.0028C22.2585 42.8307 22.917 41.241 22.917 39.5834ZM6.25033 39.5834V33.3334C6.25033 32.2283 6.68931 31.1685 7.47071 30.3871C8.25212 29.6057 9.31192 29.1667 10.417 29.1667H16.667C17.7721 29.1667 18.8319 29.6057 19.6133 30.3871C20.3947 31.1685 20.8337 32.2283 20.8337 33.3334V39.5834C20.8337 40.6885 20.3947 41.7483 19.6133 42.5297C18.8319 43.3111 17.7721 43.7501 16.667 43.7501H10.417C9.31192 43.7501 8.25212 43.3111 7.47071 42.5297C6.68931 41.7483 6.25033 40.6885 6.25033 39.5834ZM45.8337 33.3334C45.8337 31.6758 45.1752 30.0861 44.0031 28.914C42.831 27.7419 41.2413 27.0834 39.5837 27.0834H33.3337C31.6761 27.0834 30.0863 27.7419 28.9142 28.914C27.7421 30.0861 27.0837 31.6758 27.0837 33.3334V39.5834C27.0837 41.241 27.7421 42.8307 28.9142 44.0028C30.0863 45.1749 31.6761 45.8334 33.3337 45.8334H39.5837C41.2413 45.8334 42.831 45.1749 44.0031 44.0028C45.1752 42.8307 45.8337 41.241 45.8337 39.5834V33.3334ZM43.7503 39.5834C43.7503 40.6885 43.3113 41.7483 42.5299 42.5297C41.7485 43.3111 40.6887 43.7501 39.5837 43.7501H33.3337C32.2286 43.7501 31.1688 43.3111 30.3874 42.5297C29.606 41.7483 29.167 40.6885 29.167 39.5834V33.3334C29.167 32.2283 29.606 31.1685 30.3874 30.3871C31.1688 29.6057 32.2286 29.1667 33.3337 29.1667H39.5837C40.6887 29.1667 41.7485 29.6057 42.5299 30.3871C43.3113 31.1685 43.7503 32.2283 43.7503 33.3334V39.5834ZM45.8337 10.4167C45.8337 8.75915 45.1752 7.16943 44.0031 5.99733C42.831 4.82523 41.2413 4.16675 39.5837 4.16675H33.3337C31.6761 4.16675 30.0863 4.82523 28.9142 5.99733C27.7421 7.16943 27.0837 8.75915 27.0837 10.4167V16.6667C27.0837 18.3244 27.7421 19.9141 28.9142 21.0862C30.0863 22.2583 31.6761 22.9167 33.3337 22.9167H39.5837C41.2413 22.9167 42.831 22.2583 44.0031 21.0862C45.1752 19.9141 45.8337 18.3244 45.8337 16.6667V10.4167ZM43.7503 16.6667C43.7503 17.7718 43.3113 18.8316 42.5299 19.613C41.7485 20.3944 40.6887 20.8334 39.5837 20.8334H33.3337C32.2286 20.8334 31.1688 20.3944 30.3874 19.613C29.606 18.8316 29.167 17.7718 29.167 16.6667V10.4167C29.167 9.31168 29.606 8.25187 30.3874 7.47047C31.1688 6.68907 32.2286 6.25008 33.3337 6.25008H39.5837C40.6887 6.25008 41.7485 6.68907 42.5299 7.47047C43.3113 8.25187 43.7503 9.31168 43.7503 10.4167V16.6667ZM4.16699 10.4167V16.6667C4.16699 18.3244 4.82547 19.9141 5.99758 21.0862C7.16968 22.2583 8.75939 22.9167 10.417 22.9167H16.667C18.3246 22.9167 19.9143 22.2583 21.0864 21.0862C22.2585 19.9141 22.917 18.3244 22.917 16.6667V10.4167C22.917 8.75915 22.2585 7.16943 21.0864 5.99733C19.9143 4.82523 18.3246 4.16675 16.667 4.16675H10.417C8.75939 4.16675 7.16968 4.82523 5.99758 5.99733C4.82547 7.16943 4.16699 8.75915 4.16699 10.4167ZM6.25033 10.4167C6.25033 9.31168 6.68931 8.25187 7.47071 7.47047C8.25212 6.68907 9.31192 6.25008 10.417 6.25008H16.667C17.7721 6.25008 18.8319 6.68907 19.6133 7.47047C20.3947 8.25187 20.8337 9.31168 20.8337 10.4167V16.6667C20.8337 17.7718 20.3947 18.8316 19.6133 19.613C18.8319 20.3944 17.7721 20.8334 16.667 20.8334H10.417C9.31192 20.8334 8.25212 20.3944 7.47071 19.613C6.68931 18.8316 6.25033 17.7718 6.25033 16.6667V10.4167ZM19.792 33.8293L12.6191 40.9751L8.82324 37.1793L10.3607 35.6418L12.6191 37.9084L18.2545 32.2917L19.792 33.8293Z" fill="white"/>
</g>
<defs>
<clipPath id="clip0_124_384">
<rect width="50" height="50" fill="white"/>
</clipPath>
</defs>
</svg>
